# xmcd CD database file
#
# Track frame offsets:
#	150
#	20904
#	35082
#	67055
#	91898
#	108838
#	124599
#	141604
#	157614
#	173912
#	194933
#	225474
#	235980
#	251769
#	267174
#	287612
#
# Disc length: 4026 seconds
#
# Revision: 0
# Processed by: cddbd v1.5.2PL0 Copyright (c) Steve Scherf et al.
# Submitted via: CDex 1.51
#
DISCID=ea0fb810
DTITLE=Les Nuits Manouches - Nothing but Django 2
DYEAR=2008
DGENRE=Jazz
TTITLE0=Tchavolo Schmitt - Twelfth Year
TTITLE1=Marcel Loeffler - H.C.Q. Strut
TTITLE2=Boulou and Elios Ferré - Rythme futur
TTITLE3=Raphael Fays - Blues en mineur
TTITLE4=Biréli Lagrène - Nuages
TTITLE5=Les Pommes de ma douche - Swing From Paris
TTITLE6=Dorado Schmitt - Pierre Blanchard - Dinette
TTITLE7=Angelo Debarre - Ludovic Beier - Swing 42
TTITLE8=Dorado Schmitt - Pierre Blanchard - Belleville
TTITLE9=Marcel Loeffler - Douce ambiance
TTITLE10=Tchavolo Schmitt - Manoir de mes reves
TTITLE11=Raphael Fays - Cavalerie
TTITLE12=Florin Niculescu - Artillerie lourde
TTITLE13=Angelo Debarre - Ludovic Beier - Django's Tiger
TTITLE14=Raphael Fays - Swingtime In Springtime
TTITLE15=Angelo Debarre - Ludovic Beier - R-vingt-six
EXTD=YEAR: 2008
EXTT0=
EXTT1=
EXTT2=
EXTT3=
EXTT4=
EXTT5=
EXTT6=
EXTT7=
EXTT8=
EXTT9=
EXTT10=
EXTT11=
EXTT12=
EXTT13=
EXTT14=
EXTT15=
PLAYORDER=
